<svg width="19" height="21" viewBox="0 0 19 21" fill="none" xmlns="http://www.w3.org/2000/svg">
<g id="Pointer Copy" filter="url(#filter0_d_0_632)">
<mask id="path-1-outside-1_0_632" maskUnits="userSpaceOnUse" x="2" y="1.81689" width="15" height="16" fill="black">
<rect fill="white" x="2" y="1.81689" width="15" height="16"/>
<path fill-rule="evenodd" clip-rule="evenodd" d="M7.99976 16.7704C7.99976 16.7704 5.79399 15.0773 5.01798 13.7803C4.24196 12.4834 2.77145 10.8312 3.03012 9.79364C3.2888 8.75609 4.24196 8.4291 5.01798 9.20727C5.79399 9.98543 6.31674 11.6714 6.83408 11.4121C7.35143 11.1527 6.96342 8.68849 6.44607 7.26186C5.92873 5.83522 5.38936 2.81689 6.44607 2.81689C7.50279 2.81689 7.50279 3.81357 7.99976 5.30859C8.49672 6.80361 8.10871 8.79696 8.49672 8.79696C8.88473 8.79696 9.03279 8.44875 9.03279 7.80028C9.03279 7.62406 9.06725 7.47511 9.13721 7.35164C9.32468 7.02076 9.76709 6.87278 10.4846 6.87278C11.4698 6.87278 10.9815 8.79696 11.4785 8.79696C11.9755 8.79696 11.9755 8.83783 11.9755 7.80028C11.9755 6.76273 12.4363 6.87278 13.4302 6.87278C14.4241 6.87278 13.9429 8.79696 14.4603 8.79696C14.9776 8.79696 14.4603 7.80028 14.9572 7.80028C15.4542 7.80028 15.9512 7.95749 15.9512 10.292C15.9512 12.6265 16.2302 12.7428 15.4542 13.7803C14.6782 14.8179 13.9633 15.7737 13.9633 15.7737C13.9633 15.7737 13.9633 16.7704 13.4302 16.7704C12.8971 16.7704 12.6221 15.7737 11.9755 15.7737C11.3288 15.7737 10.9815 16.7704 10.9815 16.7704H7.99976ZM13.9633 14.777V10.7903H12.9694V14.777H13.9633ZM10.9815 13.7803C10.9815 14.0503 11.2121 14.777 11.4785 14.777C11.753 14.777 11.9755 14.0549 11.9755 13.7803V11.787C11.9755 11.517 11.7449 10.7903 11.4785 10.7903C11.204 10.7903 10.9815 11.5125 10.9815 11.787V13.7803ZM8.99368 13.7803C8.99368 14.0503 9.22421 14.777 9.49064 14.777C9.76511 14.777 9.98761 14.0549 9.98761 13.7803V11.787C9.98761 11.517 9.75708 10.7903 9.49064 10.7903C9.21618 10.7903 8.99368 11.5125 8.99368 11.787V13.7803Z"/>
</mask>
<path fill-rule="evenodd" clip-rule="evenodd" d="M7.99976 16.7704C7.99976 16.7704 5.79399 15.0773 5.01798 13.7803C4.24196 12.4834 2.77145 10.8312 3.03012 9.79364C3.2888 8.75609 4.24196 8.4291 5.01798 9.20727C5.79399 9.98543 6.31674 11.6714 6.83408 11.4121C7.35143 11.1527 6.96342 8.68849 6.44607 7.26186C5.92873 5.83522 5.38936 2.81689 6.44607 2.81689C7.50279 2.81689 7.50279 3.81357 7.99976 5.30859C8.49672 6.80361 8.10871 8.79696 8.49672 8.79696C8.88473 8.79696 9.03279 8.44875 9.03279 7.80028C9.03279 7.62406 9.06725 7.47511 9.13721 7.35164C9.32468 7.02076 9.76709 6.87278 10.4846 6.87278C11.4698 6.87278 10.9815 8.79696 11.4785 8.79696C11.9755 8.79696 11.9755 8.83783 11.9755 7.80028C11.9755 6.76273 12.4363 6.87278 13.4302 6.87278C14.4241 6.87278 13.9429 8.79696 14.4603 8.79696C14.9776 8.79696 14.4603 7.80028 14.9572 7.80028C15.4542 7.80028 15.9512 7.95749 15.9512 10.292C15.9512 12.6265 16.2302 12.7428 15.4542 13.7803C14.6782 14.8179 13.9633 15.7737 13.9633 15.7737C13.9633 15.7737 13.9633 16.7704 13.4302 16.7704C12.8971 16.7704 12.6221 15.7737 11.9755 15.7737C11.3288 15.7737 10.9815 16.7704 10.9815 16.7704H7.99976ZM13.9633 14.777V10.7903H12.9694V14.777H13.9633ZM10.9815 13.7803C10.9815 14.0503 11.2121 14.777 11.4785 14.777C11.753 14.777 11.9755 14.0549 11.9755 13.7803V11.787C11.9755 11.517 11.7449 10.7903 11.4785 10.7903C11.204 10.7903 10.9815 11.5125 10.9815 11.787V13.7803ZM8.99368 13.7803C8.99368 14.0503 9.22421 14.777 9.49064 14.777C9.76511 14.777 9.98761 14.0549 9.98761 13.7803V11.787C9.98761 11.517 9.75708 10.7903 9.49064 10.7903C9.21618 10.7903 8.99368 11.5125 8.99368 11.787V13.7803Z" fill="white"/>
<path d="M7.99976 16.7704L7.39087 17.5636L7.66021 17.7704H7.99976V16.7704ZM3.03012 9.79364L4.00042 10.0355L3.03012 9.79364ZM5.01798 9.20727L4.30989 9.91339V9.91339L5.01798 9.20727ZM6.83408 11.4121L6.38588 10.5181H6.38588L6.83408 11.4121ZM6.44607 7.26186L7.38617 6.92095L6.44607 7.26186ZM6.44607 2.81689V1.81689H6.44607L6.44607 2.81689ZM8.49672 8.79696L8.49672 9.79696H8.49672L8.49672 8.79696ZM9.03279 7.80028L8.03279 7.80028L9.03279 7.80028ZM9.13721 7.35164L8.26716 6.85868L9.13721 7.35164ZM10.4846 6.87278V5.87278V6.87278ZM11.4785 8.79696V7.79696V7.79696V8.79696ZM11.9755 7.80028L10.9755 7.80028L11.9755 7.80028ZM13.4302 6.87278V5.87278V6.87278ZM14.4603 8.79696V9.79696V8.79696ZM14.9572 7.80028V6.80028V6.80028V7.80028ZM15.9512 10.292H14.9512H15.9512ZM15.4542 13.7803L16.255 14.3793L15.4542 13.7803ZM13.9633 15.7737L13.1625 15.1748L12.9633 15.4411V15.7737H13.9633ZM13.4302 16.7704V15.7704V16.7704ZM11.9755 15.7737V14.7737V15.7737ZM10.9815 16.7704V17.7704H11.6921L11.9259 17.0994L10.9815 16.7704ZM13.9633 14.777V15.777H14.9633V14.777H13.9633ZM13.9633 10.7903H14.9633V9.79032H13.9633V10.7903ZM12.9694 10.7903V9.79032H11.9694V10.7903H12.9694ZM12.9694 14.777H11.9694V15.777H12.9694V14.777ZM7.99976 16.7704C8.60864 15.9771 8.60871 15.9772 8.60877 15.9772C8.60878 15.9772 8.60883 15.9773 8.60885 15.9773C8.60889 15.9773 8.60889 15.9773 8.60886 15.9773C8.60881 15.9773 8.60861 15.9771 8.60829 15.9769C8.60765 15.9764 8.60649 15.9755 8.60483 15.9742C8.60149 15.9716 8.59614 15.9675 8.58887 15.9618C8.57433 15.9505 8.55216 15.9332 8.52323 15.9103C8.46534 15.8646 8.38059 15.7969 8.27596 15.7114C8.06622 15.5399 7.77917 15.2986 7.46997 15.0194C6.82423 14.4365 6.18026 13.7752 5.8761 13.2669L4.15986 14.2938C4.63171 15.0824 5.47863 15.9162 6.12977 16.504C6.46902 16.8102 6.78191 17.0732 7.01 17.2597C7.12429 17.3532 7.21792 17.4279 7.28369 17.4799C7.31659 17.5059 7.34257 17.5262 7.36072 17.5403C7.3698 17.5474 7.37692 17.5529 7.38198 17.5568C7.38451 17.5587 7.38653 17.5603 7.38801 17.5614C7.38876 17.562 7.38937 17.5625 7.38984 17.5629C7.39008 17.563 7.39029 17.5632 7.39046 17.5633C7.39054 17.5634 7.39065 17.5635 7.39069 17.5635C7.39078 17.5636 7.39087 17.5636 7.99976 16.7704ZM5.8761 13.2669C5.66303 12.9108 5.40703 12.5379 5.16775 12.1898C4.92102 11.8308 4.6884 11.4929 4.48849 11.1669C4.2867 10.8379 4.14455 10.5626 4.06519 10.3383C3.98246 10.1045 4.00327 10.0241 4.00042 10.0355L2.05983 9.55173C1.92765 10.0819 2.03527 10.5972 2.17975 11.0055C2.32762 11.4233 2.55309 11.8367 2.78359 12.2125C3.01598 12.5915 3.28033 12.9746 3.51949 13.3226C3.7661 13.6814 3.98491 14.0014 4.15986 14.2938L5.8761 13.2669ZM4.00042 10.0355C4.06827 9.76342 4.17465 9.75965 4.12663 9.77457C4.10874 9.78012 4.10224 9.77428 4.12122 9.78015C4.14403 9.78719 4.21216 9.81539 4.30989 9.91339L5.72606 8.50114C5.14085 7.91431 4.33668 7.61511 3.53346 7.86455C2.75019 8.1078 2.25065 8.78631 2.05983 9.55173L4.00042 10.0355ZM4.30989 9.91339C4.58488 10.1891 4.81822 10.6355 5.16596 11.2139C5.30757 11.4495 5.50219 11.7619 5.73445 11.9939C5.85337 12.1127 6.04449 12.2753 6.30982 12.3679C6.61413 12.4741 6.96076 12.4672 7.28229 12.306L6.38588 10.5181C6.57807 10.4218 6.79519 10.419 6.96886 10.4796C7.10355 10.5266 7.16289 10.5939 7.14793 10.579C7.11242 10.5435 7.03085 10.4343 6.8801 10.1835C6.64313 9.78933 6.22709 9.00355 5.72606 8.50114L4.30989 9.91339ZM7.28229 12.306C7.65763 12.1178 7.83445 11.7927 7.91599 11.5883C8.00238 11.3717 8.04085 11.1454 8.05973 10.952C8.09797 10.5603 8.07348 10.1032 8.02127 9.65815C7.916 8.76081 7.67313 7.71227 7.38617 6.92095L5.50598 7.60277C5.73636 8.23808 5.94617 9.13495 6.0349 9.8912C6.07969 10.273 6.08754 10.5697 6.06919 10.7576C6.05979 10.854 6.04773 10.8739 6.05833 10.8473C6.06409 10.8328 6.13987 10.6415 6.38588 10.5181L7.28229 12.306ZM7.38617 6.92095C7.15542 6.28462 6.91329 5.26378 6.8532 4.43231C6.82217 4.00287 6.84808 3.72466 6.88674 3.59345C6.90482 3.5321 6.90351 3.58159 6.82835 3.6567C6.72798 3.75701 6.58159 3.81689 6.44608 3.81689L6.44607 1.81689C6.04638 1.81689 5.68569 1.9711 5.41458 2.24205C5.16867 2.4878 5.04017 2.78424 4.9683 3.02815C4.82706 3.50746 4.82202 4.073 4.8584 4.57647C4.93316 5.61082 5.21939 6.81246 5.50598 7.60277L7.38617 6.92095ZM6.44607 3.81689C6.54388 3.81689 6.5185 3.83613 6.46632 3.79715C6.43133 3.77102 6.45769 3.77056 6.51933 3.90897C6.58344 4.05291 6.64582 4.25188 6.73411 4.5622C6.8168 4.85285 6.91775 5.22375 7.05081 5.62403L8.9487 4.99315C8.83328 4.64592 8.74787 4.3316 8.65777 4.01491C8.57326 3.71787 8.47642 3.38736 8.34631 3.09525C8.21375 2.79761 8.01091 2.45454 7.66319 2.19482C7.29828 1.92224 6.87663 1.81689 6.44607 1.81689V3.81689ZM7.05081 5.62403C7.24445 6.20655 7.27532 6.93039 7.28929 7.63328C7.29546 7.94357 7.29877 8.30902 7.3328 8.58466C7.34874 8.71381 7.38215 8.93086 7.4824 9.14023C7.59046 9.36593 7.89827 9.79696 8.49672 9.79696L8.49672 7.79696C8.99817 7.79696 9.23322 8.1657 9.2863 8.27655C9.33155 8.37107 9.32774 8.42071 9.31773 8.33962C9.29985 8.19479 9.29635 7.96845 9.2889 7.59353C9.27563 6.926 9.25203 5.90564 8.9487 4.99315L7.05081 5.62403ZM8.49672 9.79696C8.74781 9.79696 9.02072 9.73882 9.27416 9.58043C9.52597 9.42305 9.69367 9.20729 9.80156 8.9952C9.99808 8.60888 10.0328 8.16219 10.0328 7.80028L8.03279 7.80028C8.03279 7.92763 8.02529 8.01487 8.01632 8.07059C8.00688 8.12919 8.00011 8.12543 8.01895 8.0884C8.04133 8.04441 8.09926 7.95624 8.21418 7.88442C8.33074 7.81157 8.43963 7.79696 8.49672 7.79696L8.49672 9.79696ZM10.0328 7.80028C10.0328 7.77686 10.0351 7.77259 10.0328 7.78253C10.0303 7.79353 10.0233 7.81631 10.0073 7.8446L8.26716 6.85868C8.09315 7.1658 8.03279 7.49408 8.03279 7.80028L10.0328 7.80028ZM10.0073 7.8446C9.95282 7.94068 9.88541 7.95197 9.94269 7.93192C10.017 7.9059 10.1811 7.87278 10.4846 7.87278V5.87278C9.74758 5.87278 8.75274 6.00164 8.26716 6.85868L10.0073 7.8446ZM10.4846 7.87278C10.4363 7.87278 10.3448 7.85818 10.2493 7.79683C10.1607 7.7399 10.1212 7.67645 10.1121 7.66025C10.1117 7.65949 10.1424 7.73075 10.1732 7.96515C10.1913 8.103 10.2245 8.47845 10.2752 8.71023C10.303 8.83687 10.3616 9.06543 10.5092 9.28041C10.6899 9.54347 11.0191 9.79696 11.4785 9.79696V7.79696C11.8137 7.79696 12.0494 7.99032 12.1578 8.14816C12.2332 8.2579 12.2407 8.33613 12.2289 8.28238C12.2007 8.15338 12.2012 8.04779 12.1561 7.70459C12.1237 7.45794 12.0606 7.04815 11.8591 6.6866C11.7496 6.49002 11.5827 6.27624 11.3302 6.11409C11.0709 5.94751 10.7792 5.87278 10.4846 5.87278V7.87278ZM11.4785 9.79696C11.5338 9.79696 11.7577 9.80414 11.9402 9.77181C12.0581 9.75093 12.2278 9.70545 12.4008 9.59251C12.5844 9.47263 12.7147 9.31423 12.8006 9.14902C12.9412 8.87851 12.9586 8.58822 12.9662 8.4483C12.9758 8.27226 12.9755 8.04724 12.9755 7.80028L10.9755 7.80028C10.9755 8.0721 10.9751 8.23106 10.9692 8.33916C10.9664 8.39043 10.9635 8.40295 10.9652 8.3935C10.9665 8.38659 10.9786 8.31775 11.0261 8.22639C11.0809 8.12092 11.1724 8.00604 11.3074 7.91785C11.4319 7.83659 11.5434 7.81096 11.5914 7.80247C11.6346 7.79481 11.6561 7.79625 11.6234 7.79687C11.5884 7.79754 11.5581 7.79696 11.4785 7.79696V9.79696ZM12.9755 7.80028C12.9755 7.70533 12.9809 7.64565 12.986 7.61187C12.9911 7.57788 12.9938 7.58469 12.9806 7.61512C12.9657 7.64958 12.9346 7.70448 12.8787 7.76003C12.8226 7.8158 12.7646 7.84927 12.7226 7.8672C12.6852 7.88317 12.6676 7.88379 12.6874 7.88071C12.7074 7.87758 12.7463 7.87351 12.8158 7.87127C12.885 7.86904 12.9668 7.86906 13.0732 7.87003C13.1737 7.87095 13.2999 7.87278 13.4302 7.87278V5.87278C13.231 5.87278 12.9524 5.86584 12.7514 5.87231C12.544 5.87899 12.2368 5.90003 11.9376 6.0277C11.5827 6.17914 11.306 6.44942 11.1454 6.82017C11.0067 7.14033 10.9755 7.48808 10.9755 7.80028L12.9755 7.80028ZM13.4302 7.87278C13.3847 7.87278 13.2962 7.85904 13.2031 7.79998C13.1165 7.74508 13.0776 7.68378 13.0688 7.66833C13.0622 7.65687 13.0727 7.67201 13.0889 7.73417C13.1046 7.7943 13.1192 7.8724 13.134 7.97606C13.1541 8.11699 13.1913 8.49068 13.2483 8.72904C13.2794 8.85903 13.344 9.08876 13.4997 9.30275C13.6895 9.56343 14.0181 9.79696 14.4603 9.79696V7.79696C14.7731 7.79696 15.0036 7.97036 15.1168 8.12581C15.1959 8.23457 15.2054 8.31398 15.1934 8.26357C15.1641 8.14115 15.1625 8.0338 15.1139 7.69368C15.0789 7.44803 15.0118 7.03866 14.8067 6.67853C14.6951 6.48269 14.5267 6.27106 14.2741 6.11093C14.015 5.94664 13.7242 5.87278 13.4302 5.87278V7.87278ZM14.4603 9.79696C14.6896 9.79696 14.9631 9.73913 15.2098 9.55412C15.4513 9.37296 15.5722 9.14089 15.6323 8.96537C15.6898 8.79766 15.7057 8.64255 15.7118 8.54456C15.7182 8.44382 15.7169 8.34547 15.7163 8.2884C15.7156 8.21676 15.7156 8.18854 15.7167 8.16774C15.7179 8.14465 15.7185 8.18653 15.6964 8.25678C15.6724 8.3328 15.6054 8.49233 15.4351 8.62716C15.2558 8.76909 15.0681 8.80028 14.9572 8.80028V6.80028C14.7221 6.80028 14.4419 6.86262 14.1937 7.05906C13.9546 7.24839 13.8424 7.48579 13.789 7.65524C13.7374 7.81894 13.7243 7.96983 13.7194 8.06354C13.7144 8.15953 13.7159 8.2559 13.7165 8.30885C13.7171 8.37636 13.7168 8.4026 13.7158 8.41866C13.7146 8.43746 13.7148 8.39136 13.7403 8.31709C13.7684 8.23501 13.8409 8.0808 14.0098 7.95415C14.1838 7.82364 14.3603 7.79696 14.4603 7.79696V9.79696ZM14.9572 8.80028C15.042 8.80028 14.9971 8.81076 14.9197 8.77674C14.8143 8.7304 14.7687 8.66046 14.7691 8.66118C14.7821 8.68422 14.8337 8.79436 14.8781 9.07429C14.9214 9.34792 14.9512 9.73923 14.9512 10.292L16.9512 10.292C16.9512 9.11522 16.8369 8.25747 16.512 7.68021C16.3261 7.34982 16.063 7.09467 15.7247 6.94591C15.4144 6.80946 15.1209 6.80028 14.9572 6.80028V8.80028ZM14.9512 10.292C14.9512 10.8964 14.9693 11.3579 14.9834 11.7155C14.9982 12.0895 15.0054 12.298 14.9955 12.4622C14.9873 12.5974 14.9689 12.6649 14.9403 12.7314C14.9036 12.817 14.8303 12.9448 14.6534 13.1814L16.255 14.3793C16.4661 14.0971 16.649 13.8213 16.7782 13.5203C16.9155 13.2002 16.9728 12.8982 16.9919 12.5829C17.0092 12.2964 16.9952 11.9733 16.9819 11.6365C16.9679 11.2833 16.9512 10.8548 16.9512 10.292L14.9512 10.292ZM14.6534 13.1814C14.2654 13.7002 13.8927 14.1985 13.617 14.5672C13.4791 14.7515 13.3655 14.9034 13.2863 15.0092C13.2468 15.0621 13.2158 15.1035 13.1948 15.1317C13.1842 15.1458 13.1762 15.1565 13.1707 15.1638C13.168 15.1674 13.166 15.1702 13.1646 15.172C13.1639 15.1729 13.1634 15.1736 13.163 15.1741C13.1629 15.1743 13.1627 15.1745 13.1626 15.1746C13.1626 15.1747 13.1626 15.1747 13.1625 15.1747C13.1625 15.1747 13.1625 15.1747 13.1625 15.1748C13.1625 15.1748 13.1625 15.1748 13.9633 15.7737C14.7641 16.3726 14.7641 16.3726 14.7641 16.3726C14.7641 16.3726 14.7641 16.3726 14.7641 16.3726C14.7642 16.3726 14.7642 16.3725 14.7642 16.3725C14.7643 16.3724 14.7645 16.3722 14.7646 16.3719C14.765 16.3715 14.7655 16.3708 14.7662 16.3699C14.7676 16.368 14.7696 16.3653 14.7723 16.3617C14.7778 16.3544 14.7858 16.3436 14.7963 16.3295C14.8174 16.3014 14.8484 16.26 14.8879 16.2071C14.9671 16.1013 15.0807 15.9494 15.2185 15.765C15.4943 15.3964 15.867 14.8981 16.255 14.3793L14.6534 13.1814ZM13.9633 15.7737C12.9633 15.7737 12.9633 15.7734 12.9633 15.7732C12.9633 15.7731 12.9633 15.7729 12.9633 15.7727C12.9633 15.7724 12.9633 15.7721 12.9633 15.7718C12.9633 15.7712 12.9633 15.7707 12.9633 15.7702C12.9633 15.7692 12.9633 15.7685 12.9633 15.7679C12.9633 15.7669 12.9634 15.7666 12.9633 15.7671C12.9633 15.7681 12.9632 15.772 12.963 15.7784C12.9625 15.7914 12.9614 15.8132 12.9589 15.8406C12.9536 15.9001 12.9441 15.9634 12.9306 16.0137C12.9137 16.0769 12.9094 16.05 12.9584 15.9889C12.9883 15.9516 13.0448 15.8937 13.135 15.8455C13.2302 15.7947 13.3339 15.7704 13.4302 15.7704V17.7704C13.9279 17.7704 14.2955 17.5183 14.5184 17.2404C14.7174 16.9924 14.813 16.7164 14.8627 16.5304C14.9159 16.3315 14.9397 16.1456 14.951 16.0182C14.9569 15.9522 14.96 15.8962 14.9615 15.8547C14.9623 15.8338 14.9628 15.8163 14.963 15.8027C14.9631 15.7959 14.9632 15.79 14.9633 15.7852C14.9633 15.7828 14.9633 15.7806 14.9633 15.7787C14.9633 15.7777 14.9633 15.7768 14.9633 15.776C14.9633 15.7756 14.9633 15.7752 14.9633 15.7748C14.9633 15.7746 14.9633 15.7743 14.9633 15.7742C14.9633 15.774 14.9633 15.7737 13.9633 15.7737ZM13.4302 15.7704C13.6309 15.7704 13.7368 15.8697 13.7134 15.8501C13.6773 15.8196 13.6338 15.7701 13.5007 15.6167C13.3974 15.4976 13.2216 15.2946 12.9992 15.1284C12.7595 14.9493 12.4157 14.7737 11.9755 14.7737V16.7737C11.8585 16.7737 11.7916 16.7227 11.802 16.7305C11.8297 16.7512 11.8772 16.7973 11.9901 16.9274C12.0732 17.0232 12.2389 17.2228 12.4244 17.3793C12.6228 17.5465 12.9629 17.7704 13.4302 17.7704V15.7704ZM11.9755 14.7737C11.1165 14.7737 10.6069 15.4157 10.4063 15.7138C10.2832 15.8968 10.1939 16.0729 10.1362 16.1993C10.1067 16.2639 10.0839 16.3191 10.0676 16.3604C10.0594 16.3811 10.0528 16.3985 10.0477 16.4122C10.0452 16.419 10.0431 16.4249 10.0413 16.4297C10.0404 16.4322 10.0397 16.4344 10.039 16.4363C10.0386 16.4373 10.0383 16.4382 10.038 16.439C10.0379 16.4395 10.0377 16.4399 10.0376 16.4403C10.0375 16.4405 10.0374 16.4407 10.0374 16.4408C10.0373 16.4411 10.0372 16.4414 10.9815 16.7704C11.9259 17.0994 11.9258 17.0997 11.9257 17.0999C11.9257 17.1 11.9256 17.1003 11.9255 17.1004C11.9254 17.1007 11.9253 17.1011 11.9252 17.1014C11.925 17.102 11.9248 17.1025 11.9246 17.103C11.9242 17.104 11.924 17.1047 11.9238 17.1053C11.9234 17.1064 11.9233 17.1067 11.9234 17.1062C11.9238 17.1053 11.9253 17.1013 11.9279 17.0947C11.9331 17.0815 11.9424 17.0588 11.9556 17.03C11.9832 16.9695 12.0212 16.8964 12.0657 16.8303C12.0873 16.7981 12.1072 16.7725 12.1241 16.7535C12.1413 16.7342 12.1508 16.7269 12.1507 16.7269C12.1491 16.7281 12.0855 16.7737 11.9755 16.7737V14.7737ZM10.9815 15.7704H7.99976V17.7704H10.9815V15.7704ZM14.9633 14.777V10.7903H12.9633V14.777H14.9633ZM13.9633 9.79032H12.9694V11.7903H13.9633V9.79032ZM11.9694 10.7903V14.777H13.9694V10.7903H11.9694ZM12.9694 15.777H13.9633V13.777H12.9694V15.777ZM9.98153 13.7803C9.98153 14.0964 10.0883 14.4833 10.2088 14.7688C10.2731 14.9211 10.3707 15.1165 10.5139 15.2918C10.6285 15.4321 10.9494 15.777 11.4785 15.777V13.777C11.6807 13.777 11.8329 13.8473 11.9205 13.9035C12.004 13.9571 12.0492 14.0099 12.063 14.0267C12.088 14.0574 12.078 14.0542 12.0514 13.991C12.0286 13.9371 12.0077 13.8725 11.9935 13.8139C11.9866 13.7855 11.9827 13.7648 11.981 13.753C11.9788 13.738 11.9815 13.7492 11.9815 13.7803H9.98153ZM11.4785 15.777C11.9991 15.777 12.32 15.4456 12.443 15.2967C12.5896 15.1192 12.6881 14.9213 12.7524 14.7677C12.8741 14.477 12.9755 14.0926 12.9755 13.7803H10.9755C10.9755 13.7397 10.9798 13.7519 10.9633 13.8217C10.9494 13.8802 10.9292 13.9436 10.9075 13.9955C10.8818 14.0568 10.8732 14.0566 10.9009 14.0231C10.9163 14.0045 10.9628 13.9513 11.0475 13.8982C11.1369 13.8421 11.2851 13.777 11.4785 13.777V15.777ZM12.9755 13.7803V11.787H10.9755V13.7803H12.9755ZM12.9755 11.787C12.9755 11.4709 12.8687 11.084 12.7482 10.7985C12.6839 10.6462 12.5863 10.4509 12.4431 10.2756C12.3285 10.1353 12.0076 9.79032 11.4785 9.79032V11.7903C11.2763 11.7903 11.1241 11.72 11.0365 11.6638C10.953 11.6103 10.9078 11.5575 10.894 11.5406C10.869 11.51 10.879 11.5132 10.9056 11.5763C10.9284 11.6302 10.9493 11.6948 10.9635 11.7534C10.9704 11.7818 10.9742 11.8026 10.976 11.8143C10.9782 11.8294 10.9755 11.8182 10.9755 11.787H12.9755ZM11.4785 9.79032C10.9579 9.79032 10.637 10.1217 10.514 10.2707C10.3674 10.4482 10.2689 10.6461 10.2046 10.7996C10.0829 11.0904 9.98153 11.4748 9.98153 11.787H11.9815C11.9815 11.8277 11.9772 11.8154 11.9937 11.7457C12.0076 11.6871 12.0278 11.6238 12.0495 11.5718C12.0752 11.5105 12.0838 11.5107 12.0561 11.5442C12.0407 11.5629 11.9941 11.6161 11.9095 11.6691C11.8201 11.7252 11.6719 11.7903 11.4785 11.7903V9.79032ZM9.98153 11.787V13.7803H11.9815V11.787H9.98153ZM7.99368 13.7803C7.99368 14.0964 8.10045 14.4833 8.22097 14.7688C8.28525 14.9211 8.38288 15.1165 8.52604 15.2918C8.64061 15.4321 8.96158 15.777 9.49064 15.777V13.777C9.69283 13.777 9.84501 13.8473 9.93268 13.9035C10.0161 13.9571 10.0613 14.0099 10.0751 14.0267C10.1001 14.0574 10.0902 14.0542 10.0635 13.991C10.0408 13.9371 10.0198 13.8725 10.0056 13.8139C9.99871 13.7855 9.9949 13.7648 9.99315 13.753C9.9909 13.738 9.99368 13.7492 9.99368 13.7803H7.99368ZM9.49064 15.777C10.0113 15.777 10.3321 15.4456 10.4551 15.2967C10.6017 15.1192 10.7002 14.9213 10.7645 14.7677C10.8862 14.477 10.9876 14.0926 10.9876 13.7803H8.98761C8.98761 13.7397 8.99192 13.7519 8.97541 13.8217C8.96156 13.8802 8.94135 13.9436 8.9196 13.9955C8.89393 14.0568 8.88536 14.0566 8.91304 14.0231C8.92845 14.0045 8.975 13.9513 9.0596 13.8982C9.14902 13.8421 9.29729 13.777 9.49064 13.777V15.777ZM10.9876 13.7803V11.787H8.98761V13.7803H10.9876ZM10.9876 11.787C10.9876 11.4709 10.8808 11.084 10.7603 10.7985C10.696 10.6462 10.5984 10.4509 10.4552 10.2756C10.3407 10.1353 10.0197 9.79032 9.49064 9.79032V11.7903C9.28846 11.7903 9.13628 11.72 9.04861 11.6638C8.96514 11.6103 8.91994 11.5575 8.90615 11.5406C8.88114 11.51 8.89111 11.5132 8.91776 11.5763C8.94053 11.6302 8.96146 11.6948 8.97569 11.7534C8.98258 11.7818 8.98639 11.8026 8.98814 11.8143C8.99039 11.8294 8.98761 11.8182 8.98761 11.787H10.9876ZM9.49064 9.79032C8.97001 9.79032 8.64917 10.1217 8.52616 10.2707C8.37956 10.4482 8.28105 10.6461 8.21679 10.7996C8.09508 11.0904 7.99368 11.4748 7.99368 11.787H9.99368C9.99368 11.8277 9.98937 11.8154 10.0059 11.7457C10.0197 11.6871 10.0399 11.6238 10.0617 11.5718C10.0874 11.5105 10.0959 11.5107 10.0683 11.5442C10.0528 11.5629 10.0063 11.6161 9.92169 11.6691C9.83227 11.7252 9.684 11.7903 9.49064 11.7903V9.79032ZM7.99368 11.787V13.7803H9.99368V11.787H7.99368Z" fill="black" mask="url(#path-1-outside-1_0_632)"/>
</g>
<defs>
<filter id="filter0_d_0_632" x="0" y="0.816895" width="19" height="19.9536" filterUnits="userSpaceOnUse" color-interpolation-filters="sRGB">
<feFlood flood-opacity="0" result="BackgroundImageFix"/>
<feColorMatrix in="SourceAlpha" type="matrix" values="0 0 0 0 0 0 0 0 0 0 0 0 0 0 0 0 0 0 127 0" result="hardAlpha"/>
<feOffset dy="1"/>
<feGaussianBlur stdDeviation="1"/>
<feColorMatrix type="matrix" values="0 0 0 0 0 0 0 0 0 0 0 0 0 0 0 0 0 0 1 0"/>
<feBlend mode="normal" in2="BackgroundImageFix" result="effect1_dropShadow_0_632"/>
<feBlend mode="normal" in="SourceGraphic" in2="effect1_dropShadow_0_632" result="shape"/>
</filter>
</defs>
</svg>
